<svg width="47" height="51" viewBox="0 0 47 51" fill="none" xmlns="http://www.w3.org/2000/svg">
<path d="M25 1.25C33.4128 1.25 40.8257 5.53347 45.1758 12.0416L24.6263 23.8497L23.512 24.49L24.6176 25.1452L45.9214 37.7699C41.7072 44.9398 33.9148 49.75 25 49.75C11.6071 49.75 0.75 38.8929 0.75 25.5C0.75 12.1071 11.6071 1.25 25 1.25Z" fill="#F94C10" stroke="black" stroke-width="1.5"/>
<path d="M25.8269 10.2722L26.4747 10.8313L25.8355 11.4002L23.9038 13.1196C24.3084 13.9003 24.8682 14.25 25.3369 14.25C25.743 14.25 26.2029 14.0027 26.5957 13.4128C26.9849 12.8282 27.25 11.9774 27.25 11C27.25 10.0226 26.9849 9.17179 26.5957 8.58722C26.2029 7.99731 25.743 7.75 25.3369 7.75C24.9061 7.75 24.4006 8.04183 24.0052 8.69999L25.8269 10.2722Z" fill="black" stroke="black" stroke-width="1.5"/>
</svg>
